<mxfile host="www.draw.io" modified="2020-01-04T06:26:21.082Z" agent="Mozilla/5.0 (Macintosh; Intel Mac OS X 10_13_1) AppleWebKit/537.36 (KHTML, like Gecko) Chrome/78.0.3904.108 Safari/537.36" etag="WzgvCHdBprKgvzNn7eNO" version="12.4.8" type="github">
  <diagram id="PYBcWRIYP_JWarQOY-v8" name="ngx_hash">
    <mxGraphModel dx="1642" dy="1740" grid="1" gridSize="10" guides="1" tooltips="1" connect="1" arrows="1" fold="1" page="1" pageScale="1" pageWidth="827" pageHeight="1169" math="0" shadow="0">
      <root>
        <mxCell id="0"/>
        <mxCell id="1" parent="0"/>
        <mxCell id="IymGdgdyuC5TBlrSCNEB-5" value="" style="rounded=0;whiteSpace=wrap;html=1;" vertex="1" parent="1">
          <mxGeometry x="122" y="120" width="280" height="180" as="geometry"/>
        </mxCell>
        <mxCell id="GJd5LnFdF1x4W9C9UNJp-11" value="" style="rounded=0;whiteSpace=wrap;html=1;" parent="1" vertex="1">
          <mxGeometry x="122" y="160" width="200" height="140" as="geometry"/>
        </mxCell>
        <mxCell id="GJd5LnFdF1x4W9C9UNJp-2" value="ngx_hash_elt_t" style="text;html=1;strokeColor=none;fillColor=none;align=center;verticalAlign=middle;whiteSpace=wrap;rounded=0;" parent="1" vertex="1">
          <mxGeometry x="-280" y="470" width="100" height="20" as="geometry"/>
        </mxCell>
        <mxCell id="GJd5LnFdF1x4W9C9UNJp-3" value="*value" style="rounded=0;whiteSpace=wrap;html=1;" parent="1" vertex="1">
          <mxGeometry x="-280" y="490" width="40" height="40" as="geometry"/>
        </mxCell>
        <mxCell id="GJd5LnFdF1x4W9C9UNJp-4" value="len" style="rounded=0;whiteSpace=wrap;html=1;" parent="1" vertex="1">
          <mxGeometry x="-240" y="490" width="40" height="40" as="geometry"/>
        </mxCell>
        <mxCell id="GJd5LnFdF1x4W9C9UNJp-6" value="name[1]" style="rounded=0;whiteSpace=wrap;html=1;" parent="1" vertex="1">
          <mxGeometry x="-200" y="490" width="60" height="40" as="geometry"/>
        </mxCell>
        <mxCell id="GJd5LnFdF1x4W9C9UNJp-12" value="bucket 0" style="rounded=0;whiteSpace=wrap;html=1;" parent="1" vertex="1">
          <mxGeometry x="-190" y="720" width="60" height="40" as="geometry"/>
        </mxCell>
        <mxCell id="GJd5LnFdF1x4W9C9UNJp-13" value="bucket 1" style="rounded=0;whiteSpace=wrap;html=1;" parent="1" vertex="1">
          <mxGeometry x="-130" y="720" width="60" height="40" as="geometry"/>
        </mxCell>
        <mxCell id="GJd5LnFdF1x4W9C9UNJp-14" value="bucket 2" style="rounded=0;whiteSpace=wrap;html=1;" parent="1" vertex="1">
          <mxGeometry x="-70" y="720" width="60" height="40" as="geometry"/>
        </mxCell>
        <mxCell id="GJd5LnFdF1x4W9C9UNJp-15" value="...." style="rounded=0;whiteSpace=wrap;html=1;" parent="1" vertex="1">
          <mxGeometry x="110" y="720" width="60" height="40" as="geometry"/>
        </mxCell>
        <mxCell id="GJd5LnFdF1x4W9C9UNJp-16" value="bucket 3" style="rounded=0;whiteSpace=wrap;html=1;" parent="1" vertex="1">
          <mxGeometry x="-10" y="720" width="60" height="40" as="geometry"/>
        </mxCell>
        <mxCell id="GJd5LnFdF1x4W9C9UNJp-17" value="bucket 4" style="rounded=0;whiteSpace=wrap;html=1;" parent="1" vertex="1">
          <mxGeometry x="50" y="720" width="60" height="40" as="geometry"/>
        </mxCell>
        <mxCell id="GJd5LnFdF1x4W9C9UNJp-18" value="" style="shape=curlyBracket;whiteSpace=wrap;html=1;rounded=1;rotation=-90;" parent="1" vertex="1">
          <mxGeometry x="-23" y="594.75" width="26.25" height="362.25" as="geometry"/>
        </mxCell>
        <mxCell id="tx4UFpJdMEhodSHkLSr4-7" value="elt 0" style="rounded=0;whiteSpace=wrap;html=1;" parent="1" vertex="1">
          <mxGeometry x="-250" y="590" width="40" height="40" as="geometry"/>
        </mxCell>
        <mxCell id="tx4UFpJdMEhodSHkLSr4-8" value="elt 1" style="rounded=0;whiteSpace=wrap;html=1;" parent="1" vertex="1">
          <mxGeometry x="-210" y="590" width="40" height="40" as="geometry"/>
        </mxCell>
        <mxCell id="tx4UFpJdMEhodSHkLSr4-9" value="elt 2" style="rounded=0;whiteSpace=wrap;html=1;" parent="1" vertex="1">
          <mxGeometry x="-170" y="590" width="40" height="40" as="geometry"/>
        </mxCell>
        <mxCell id="tx4UFpJdMEhodSHkLSr4-11" value="..." style="rounded=0;whiteSpace=wrap;html=1;" parent="1" vertex="1">
          <mxGeometry x="-130" y="590" width="40" height="40" as="geometry"/>
        </mxCell>
        <mxCell id="tx4UFpJdMEhodSHkLSr4-13" value="" style="endArrow=none;dashed=1;html=1;exitX=0;exitY=0;exitDx=0;exitDy=0;entryX=0;entryY=1;entryDx=0;entryDy=0;" parent="1" source="GJd5LnFdF1x4W9C9UNJp-12" target="tx4UFpJdMEhodSHkLSr4-7" edge="1">
          <mxGeometry width="50" height="50" relative="1" as="geometry">
            <mxPoint x="-150" y="710" as="sourcePoint"/>
            <mxPoint x="-100" y="660" as="targetPoint"/>
          </mxGeometry>
        </mxCell>
        <mxCell id="tx4UFpJdMEhodSHkLSr4-14" value="" style="endArrow=none;dashed=1;html=1;exitX=0;exitY=0;exitDx=0;exitDy=0;entryX=0;entryY=1;entryDx=0;entryDy=0;" parent="1" source="GJd5LnFdF1x4W9C9UNJp-13" edge="1">
          <mxGeometry width="50" height="50" relative="1" as="geometry">
            <mxPoint x="-180" y="730" as="sourcePoint"/>
            <mxPoint x="-90" y="630" as="targetPoint"/>
          </mxGeometry>
        </mxCell>
        <mxCell id="tx4UFpJdMEhodSHkLSr4-15" value="" style="endArrow=none;dashed=1;html=1;exitX=0;exitY=0;exitDx=0;exitDy=0;entryX=0;entryY=1;entryDx=0;entryDy=0;" parent="1" source="tx4UFpJdMEhodSHkLSr4-7" target="GJd5LnFdF1x4W9C9UNJp-3" edge="1">
          <mxGeometry width="50" height="50" relative="1" as="geometry">
            <mxPoint x="-240" y="640" as="sourcePoint"/>
            <mxPoint x="-300" y="550" as="targetPoint"/>
          </mxGeometry>
        </mxCell>
        <mxCell id="tx4UFpJdMEhodSHkLSr4-18" value="" style="endArrow=none;dashed=1;html=1;exitX=1;exitY=0;exitDx=0;exitDy=0;entryX=1;entryY=1;entryDx=0;entryDy=0;" parent="1" source="tx4UFpJdMEhodSHkLSr4-7" target="GJd5LnFdF1x4W9C9UNJp-6" edge="1">
          <mxGeometry width="50" height="50" relative="1" as="geometry">
            <mxPoint x="-240" y="600" as="sourcePoint"/>
            <mxPoint x="-270" y="540" as="targetPoint"/>
          </mxGeometry>
        </mxCell>
        <mxCell id="n5V-XG2XSndLqi8VTAbY-1" value="" style="rounded=0;whiteSpace=wrap;html=1;" parent="1" vertex="1">
          <mxGeometry x="-140" y="-320" width="840" height="60" as="geometry"/>
        </mxCell>
        <mxCell id="n5V-XG2XSndLqi8VTAbY-3" value="ngx_hash_t&lt;br&gt;*hash" style="rounded=0;whiteSpace=wrap;html=1;" parent="1" vertex="1">
          <mxGeometry x="-139.87" y="-286" width="120" height="30" as="geometry"/>
        </mxCell>
        <mxCell id="n5V-XG2XSndLqi8VTAbY-4" value="ngx_hash_key_pt&lt;br&gt;key" style="rounded=0;whiteSpace=wrap;html=1;" parent="1" vertex="1">
          <mxGeometry x="-19.870000000000005" y="-286" width="120" height="30" as="geometry"/>
        </mxCell>
        <mxCell id="n5V-XG2XSndLqi8VTAbY-5" value="ngx_uint_t&lt;br&gt;max_size" style="rounded=0;whiteSpace=wrap;html=1;" parent="1" vertex="1">
          <mxGeometry x="100" y="-286" width="120" height="30" as="geometry"/>
        </mxCell>
        <mxCell id="n5V-XG2XSndLqi8VTAbY-6" value="ngx_uint_t&lt;br&gt;bucket_size" style="rounded=0;whiteSpace=wrap;html=1;" parent="1" vertex="1">
          <mxGeometry x="220" y="-286" width="120" height="30" as="geometry"/>
        </mxCell>
        <mxCell id="n5V-XG2XSndLqi8VTAbY-7" value="char&lt;br&gt;*name" style="rounded=0;whiteSpace=wrap;html=1;" parent="1" vertex="1">
          <mxGeometry x="340" y="-286" width="120" height="30" as="geometry"/>
        </mxCell>
        <mxCell id="n5V-XG2XSndLqi8VTAbY-8" value="ngx_pool_t&lt;br&gt;*pool" style="rounded=0;whiteSpace=wrap;html=1;" parent="1" vertex="1">
          <mxGeometry x="458.17999999999995" y="-286" width="120" height="30" as="geometry"/>
        </mxCell>
        <mxCell id="n5V-XG2XSndLqi8VTAbY-9" value="ngx_pool_t&lt;br&gt;*temp_pool" style="rounded=0;whiteSpace=wrap;html=1;" parent="1" vertex="1">
          <mxGeometry x="576.36" y="-286" width="123.64" height="30" as="geometry"/>
        </mxCell>
        <mxCell id="n5V-XG2XSndLqi8VTAbY-10" value="" style="rounded=0;whiteSpace=wrap;html=1;" parent="1" vertex="1">
          <mxGeometry x="122" y="-79" width="598" height="79" as="geometry"/>
        </mxCell>
        <mxCell id="IymGdgdyuC5TBlrSCNEB-1" value="&lt;b&gt;内存池&lt;/b&gt;" style="text;html=1;strokeColor=none;fillColor=none;align=center;verticalAlign=middle;whiteSpace=wrap;rounded=0;" vertex="1" parent="1">
          <mxGeometry x="82" y="-79" width="40" height="20" as="geometry"/>
        </mxCell>
        <mxCell id="IymGdgdyuC5TBlrSCNEB-3" value="Used" style="rounded=0;whiteSpace=wrap;html=1;" vertex="1" parent="1">
          <mxGeometry x="122" y="-79" width="118" height="79" as="geometry"/>
        </mxCell>
        <mxCell id="IymGdgdyuC5TBlrSCNEB-4" value="&lt;p&gt;&lt;span style=&quot;white-space: pre ; background-color: rgb(255 , 255 , 255)&quot;&gt;ngx_hash_wildcard_t&lt;/span&gt;&lt;/p&gt;" style="rounded=0;whiteSpace=wrap;html=1;" vertex="1" parent="1">
          <mxGeometry x="240" y="-79" width="130" height="79" as="geometry"/>
        </mxCell>
        <mxCell id="IymGdgdyuC5TBlrSCNEB-9" value="&lt;b style=&quot;white-space: normal&quot;&gt;ngx_hash_wildcard_t&lt;/b&gt;" style="rounded=0;whiteSpace=wrap;html=1;" vertex="1" parent="1">
          <mxGeometry x="122" y="120" width="280" height="40" as="geometry"/>
        </mxCell>
        <mxCell id="IymGdgdyuC5TBlrSCNEB-10" value="&lt;b style=&quot;white-space: normal&quot;&gt;ngx_hash_t&lt;/b&gt;" style="rounded=0;whiteSpace=wrap;html=1;" vertex="1" parent="1">
          <mxGeometry x="122" y="160" width="200" height="40" as="geometry"/>
        </mxCell>
        <mxCell id="IymGdgdyuC5TBlrSCNEB-11" value="&lt;span style=&quot;white-space: normal&quot;&gt;ngx_hash_elt_t&lt;/span&gt;&lt;br style=&quot;white-space: normal&quot;&gt;&lt;span style=&quot;white-space: normal&quot;&gt;**buckets&lt;/span&gt;" style="rounded=0;whiteSpace=wrap;html=1;" vertex="1" parent="1">
          <mxGeometry x="122" y="200" width="120" height="100" as="geometry"/>
        </mxCell>
        <mxCell id="IymGdgdyuC5TBlrSCNEB-12" value="&lt;span style=&quot;white-space: normal&quot;&gt;ngx_uint_t&lt;/span&gt;&lt;br style=&quot;white-space: normal&quot;&gt;&lt;span style=&quot;white-space: normal&quot;&gt;size&lt;/span&gt;" style="rounded=0;whiteSpace=wrap;html=1;" vertex="1" parent="1">
          <mxGeometry x="242" y="200" width="80" height="100" as="geometry"/>
        </mxCell>
        <mxCell id="IymGdgdyuC5TBlrSCNEB-13" value="void&lt;br&gt;*value" style="rounded=0;whiteSpace=wrap;html=1;" vertex="1" parent="1">
          <mxGeometry x="322" y="160" width="80" height="140" as="geometry"/>
        </mxCell>
        <mxCell id="IymGdgdyuC5TBlrSCNEB-14" value="" style="endArrow=none;dashed=1;html=1;entryX=0;entryY=1;entryDx=0;entryDy=0;exitX=0;exitY=0;exitDx=0;exitDy=0;" edge="1" parent="1" source="IymGdgdyuC5TBlrSCNEB-9" target="IymGdgdyuC5TBlrSCNEB-4">
          <mxGeometry width="50" height="50" relative="1" as="geometry">
            <mxPoint x="230" y="160" as="sourcePoint"/>
            <mxPoint x="280" y="110" as="targetPoint"/>
          </mxGeometry>
        </mxCell>
        <mxCell id="IymGdgdyuC5TBlrSCNEB-17" value="&lt;b style=&quot;white-space: normal&quot;&gt;ngx_hash_init_t&lt;/b&gt;" style="rounded=0;whiteSpace=wrap;html=1;" vertex="1" parent="1">
          <mxGeometry x="-140" y="-320" width="840" height="34" as="geometry"/>
        </mxCell>
        <mxCell id="IymGdgdyuC5TBlrSCNEB-20" value="" style="endArrow=none;dashed=1;html=1;entryX=0.25;entryY=1;entryDx=0;entryDy=0;exitX=0;exitY=0;exitDx=0;exitDy=0;" edge="1" parent="1" source="IymGdgdyuC5TBlrSCNEB-3" target="n5V-XG2XSndLqi8VTAbY-8">
          <mxGeometry width="50" height="50" relative="1" as="geometry">
            <mxPoint x="210" y="-170" as="sourcePoint"/>
            <mxPoint x="260" y="-220" as="targetPoint"/>
          </mxGeometry>
        </mxCell>
        <mxCell id="IymGdgdyuC5TBlrSCNEB-21" value="" style="endArrow=none;dashed=1;html=1;entryX=0.75;entryY=1;entryDx=0;entryDy=0;exitX=0;exitY=0;exitDx=0;exitDy=0;" edge="1" parent="1" source="IymGdgdyuC5TBlrSCNEB-4" target="n5V-XG2XSndLqi8VTAbY-3">
          <mxGeometry width="50" height="50" relative="1" as="geometry">
            <mxPoint x="-20" y="-140" as="sourcePoint"/>
            <mxPoint x="30" y="-190" as="targetPoint"/>
          </mxGeometry>
        </mxCell>
        <mxCell id="IymGdgdyuC5TBlrSCNEB-23" value="" style="endArrow=none;dashed=1;html=1;entryX=1;entryY=1;entryDx=0;entryDy=0;exitX=1;exitY=0;exitDx=0;exitDy=0;" edge="1" parent="1" source="IymGdgdyuC5TBlrSCNEB-9" target="IymGdgdyuC5TBlrSCNEB-4">
          <mxGeometry width="50" height="50" relative="1" as="geometry">
            <mxPoint x="250.00000000000045" y="210" as="sourcePoint"/>
            <mxPoint x="250" y="10" as="targetPoint"/>
          </mxGeometry>
        </mxCell>
        <mxCell id="IymGdgdyuC5TBlrSCNEB-24" value="&lt;p&gt;&lt;br&gt;&lt;/p&gt;" style="rounded=0;whiteSpace=wrap;html=1;" vertex="1" parent="1">
          <mxGeometry x="370" y="-79" width="760" height="79" as="geometry"/>
        </mxCell>
        <mxCell id="IymGdgdyuC5TBlrSCNEB-25" value="Bucket区" style="rounded=0;whiteSpace=wrap;html=1;" vertex="1" parent="1">
          <mxGeometry x="370" y="-79" width="350" height="39" as="geometry"/>
        </mxCell>
        <mxCell id="IymGdgdyuC5TBlrSCNEB-26" value="ngx_hash_elt_t *&lt;br&gt;0" style="rounded=0;whiteSpace=wrap;html=1;" vertex="1" parent="1">
          <mxGeometry x="370" y="-40" width="100" height="40" as="geometry"/>
        </mxCell>
        <mxCell id="IymGdgdyuC5TBlrSCNEB-27" value="ngx_hash_elt_t *&lt;br&gt;1" style="rounded=0;whiteSpace=wrap;html=1;" vertex="1" parent="1">
          <mxGeometry x="470" y="-40" width="100" height="40" as="geometry"/>
        </mxCell>
        <mxCell id="IymGdgdyuC5TBlrSCNEB-28" value="ngx_hash_elt_t *&lt;br&gt;size -1" style="rounded=0;whiteSpace=wrap;html=1;" vertex="1" parent="1">
          <mxGeometry x="620" y="-40" width="100" height="40" as="geometry"/>
        </mxCell>
        <mxCell id="IymGdgdyuC5TBlrSCNEB-29" value="...." style="rounded=0;whiteSpace=wrap;html=1;" vertex="1" parent="1">
          <mxGeometry x="570" y="-40" width="50" height="40" as="geometry"/>
        </mxCell>
        <mxCell id="IymGdgdyuC5TBlrSCNEB-30" value="" style="rounded=0;whiteSpace=wrap;html=1;fillColor=#FF3333;" vertex="1" parent="1">
          <mxGeometry x="720" y="-79" width="40" height="79" as="geometry"/>
        </mxCell>
        <mxCell id="IymGdgdyuC5TBlrSCNEB-31" value="&lt;b&gt;对齐&lt;br&gt;引起的&lt;br&gt;偏移&lt;/b&gt;" style="text;html=1;strokeColor=none;fillColor=none;align=center;verticalAlign=middle;whiteSpace=wrap;rounded=0;" vertex="1" parent="1">
          <mxGeometry x="695" y="-60" width="90" height="20" as="geometry"/>
        </mxCell>
        <mxCell id="IymGdgdyuC5TBlrSCNEB-34" value="ngx_hash_elt_t区" style="rounded=0;whiteSpace=wrap;html=1;" vertex="1" parent="1">
          <mxGeometry x="760" y="-79" width="350" height="39" as="geometry"/>
        </mxCell>
        <mxCell id="IymGdgdyuC5TBlrSCNEB-35" value="ngx_hash_elt_t *&lt;br&gt;0" style="rounded=0;whiteSpace=wrap;html=1;" vertex="1" parent="1">
          <mxGeometry x="760" y="-40" width="100" height="40" as="geometry"/>
        </mxCell>
      </root>
    </mxGraphModel>
  </diagram>
</mxfile>
